<svg width="512" height="512" viewBox="0 0 512 512" fill="none" xmlns="http://www.w3.org/2000/svg">
<path d="M357.684 366.72C342.608 366.72 330.777 362.522 322.189 354.125C313.793 345.729 309.594 334.183 309.594 319.489V241.631H266.944V209.285H309.594V164.917H345.661V209.285H406.059V241.631H345.661V319.489C345.661 329.413 350.527 334.374 360.26 334.374H403.197V366.72H357.684Z" class="dynamic"/>
<path d="M169.446 369.582C155.134 369.582 142.73 367.197 132.234 362.426C121.738 357.655 113.628 350.881 107.903 342.103C102.369 333.134 99.5067 322.638 99.3159 310.616H135.097C135.097 319.203 138.15 325.978 144.256 330.939C150.554 335.71 159.046 338.095 169.732 338.095C180.037 338.095 188.052 335.71 193.777 330.939C199.693 326.168 202.65 319.585 202.65 311.188C202.65 304.128 200.551 298.021 196.353 292.869C192.346 287.525 186.525 283.9 178.892 281.991L154.848 275.408C138.436 271.209 125.746 263.672 116.777 252.794C107.999 241.917 103.61 228.75 103.61 213.292C103.61 201.461 106.281 191.156 111.624 182.378C116.968 173.6 124.506 166.825 134.238 162.055C144.161 157.284 155.802 154.898 169.16 154.898C189.388 154.898 205.418 160.146 217.249 170.642C229.08 180.947 235.092 194.877 235.282 212.434H199.502C199.502 204.228 196.83 197.835 191.487 193.255C186.144 188.484 178.606 186.099 168.874 186.099C159.523 186.099 152.271 188.294 147.119 192.683C141.966 197.072 139.39 203.274 139.39 211.289C139.39 218.54 141.299 224.742 145.115 229.895C149.123 234.856 154.848 238.387 162.29 240.486L187.193 247.356C203.795 251.554 216.486 259.092 225.264 269.969C234.042 280.655 238.431 293.918 238.431 309.757C238.431 321.589 235.569 332.084 229.844 341.244C224.119 350.213 216.104 357.178 205.799 362.14C195.494 367.102 183.377 369.582 169.446 369.582Z" class="dynamic"/>
<rect x="36" y="36" width="440" height="440" rx="96" class="dynamic-stroke" stroke-width="32"/>
<style>path.dynamic { fill: #000000; } .dynamic-stroke { stroke: #000000; } @media (prefers-color-scheme: dark) {path.dynamic { fill: #FFFFFF; } .dynamic-stroke { stroke: #FFFFFF; }}</style>
</svg>
