<svg width="472" height="472" viewBox="0 0 472 472" fill="none" xmlns="http://www.w3.org/2000/svg">
<path d="M337.684 346.72C322.608 346.72 310.777 342.522 302.189 334.125C293.793 325.729 289.594 314.183 289.594 299.489V221.631H246.944V189.285H289.594V144.917H325.661V189.285H386.059V221.631H325.661V299.489C325.661 309.413 330.527 314.374 340.26 314.374H383.197V346.72H337.684Z" fill="black"/>
<path d="M149.446 349.582C135.134 349.582 122.73 347.197 112.234 342.426C101.738 337.655 93.6282 330.881 87.9033 322.103C82.3692 313.134 79.5067 302.638 79.3159 290.616H115.097C115.097 299.203 118.15 305.978 124.256 310.939C130.554 315.71 139.046 318.095 149.732 318.095C160.037 318.095 168.052 315.71 173.777 310.939C179.693 306.168 182.65 299.585 182.65 291.188C182.65 284.128 180.551 278.021 176.353 272.869C172.346 267.525 166.525 263.9 158.892 261.991L134.848 255.408C118.436 251.209 105.746 243.672 96.7769 232.794C87.9987 221.917 83.6096 208.75 83.6096 193.292C83.6096 181.461 86.2812 171.156 91.6245 162.378C96.9677 153.6 104.506 146.825 114.238 142.055C124.161 137.284 135.802 134.898 149.16 134.898C169.388 134.898 185.418 140.146 197.249 150.642C209.08 160.947 215.092 174.877 215.282 192.434H179.502C179.502 184.228 176.83 177.835 171.487 173.255C166.144 168.484 158.606 166.099 148.874 166.099C139.523 166.099 132.271 168.294 127.119 172.683C121.966 177.072 119.39 183.274 119.39 191.289C119.39 198.54 121.299 204.742 125.115 209.895C129.123 214.856 134.848 218.387 142.29 220.486L167.193 227.356C183.795 231.554 196.486 239.092 205.264 249.969C214.042 260.655 218.431 273.918 218.431 289.757C218.431 301.589 215.569 312.084 209.844 321.244C204.119 330.213 196.104 337.178 185.799 342.14C175.494 347.102 163.377 349.582 149.446 349.582Z" fill="black"/>
<rect x="16" y="16" width="440" height="440" rx="96" stroke="black" stroke-width="32"/>
</svg>
